<svg xmlns="http://www.w3.org/2000/svg" width="960" height="540" viewBox="0 0 960 540" role="img" aria-labelledby="title desc">
  <title id="title">ЯЯ Оплата — демонстрационная картинка</title>
  <desc id="desc">Динамический QR, подтверждение оплаты, чек и баллы ЯЯ.</desc>
  <rect width="960" height="540" rx="32" fill="#f4f7fb"/>
  <rect x="48" y="48" width="864" height="444" rx="28" fill="#ffffff" stroke="#17233b" stroke-width="4"/>
  <text x="96" y="118" font-family="Arial, sans-serif" font-size="42" font-weight="700" fill="#17233b">БАЗА 1 · ЯЯ ОПЛАТА</text>
  <text x="96" y="164" font-family="Arial, sans-serif" font-size="24" fill="#42506a">QR → подтверждение → чек → баллы ЯЯ</text>
  <g transform="translate(102 218)" fill="#17233b">
    <rect x="0" y="0" width="72" height="72" rx="8"/>
    <rect x="14" y="14" width="44" height="44" rx="5" fill="#ffffff"/>
    <rect x="25" y="25" width="22" height="22" rx="3"/>
    <rect x="162" y="0" width="72" height="72" rx="8"/>
    <rect x="176" y="14" width="44" height="44" rx="5" fill="#ffffff"/>
    <rect x="187" y="25" width="22" height="22" rx="3"/>
    <rect x="0" y="162" width="72" height="72" rx="8"/>
    <rect x="14" y="176" width="44" height="44" rx="5" fill="#ffffff"/>
    <rect x="25" y="187" width="22" height="22" rx="3"/>
    <rect x="96" y="14" width="24" height="24"/>
    <rect x="126" y="44" width="24" height="24"/>
    <rect x="96" y="82" width="54" height="24"/>
    <rect x="82" y="120" width="24" height="54"/>
    <rect x="120" y="126" width="24" height="24"/>
    <rect x="156" y="96" width="24" height="54"/>
    <rect x="192" y="102" width="42" height="24"/>
    <rect x="108" y="186" width="24" height="48"/>
    <rect x="144" y="168" width="36" height="24"/>
    <rect x="192" y="156" width="24" height="24"/>
    <rect x="174" y="198" width="60" height="36"/>
  </g>
  <g transform="translate(452 218)">
    <circle cx="112" cy="112" r="104" fill="#e8f6ee" stroke="#1f7a4d" stroke-width="5"/>
    <path d="M62 112l34 34 70-82" fill="none" stroke="#1f7a4d" stroke-width="18" stroke-linecap="round" stroke-linejoin="round"/>
    <text x="236" y="90" font-family="Arial, sans-serif" font-size="30" font-weight="700" fill="#17233b">ОПЛАТА ПОДТВЕРЖДЕНА</text>
    <text x="236" y="136" font-family="Arial, sans-serif" font-size="23" fill="#42506a">Серверное событие · PAID</text>
    <text x="236" y="178" font-family="Arial, sans-serif" font-size="23" fill="#42506a">Чек сформирован · баллы начислены</text>
  </g>
  <text x="96" y="458" font-family="Arial, sans-serif" font-size="18" fill="#6b7487">Демонстрационный актив · источник истины будущего проекта: Aleksandr-yaros/YaYa-Pay</text>
</svg>
